<?xml version="1.0" encoding="UTF-8"?>
<svg xmlns="http://www.w3.org/2000/svg" viewBox="0 0 900 260" width="900" height="260" font-family="ui-sans-serif, system-ui">
  <defs>
    <marker id="arCx" markerWidth="8" markerHeight="8" refX="6" refY="3" orient="auto"><path d="M0,0 L6,3 L0,6 Z" fill="#93c5fd"/></marker>
  </defs>
  <circle cx="450" cy="130" r="58" fill="#2563eb"/>
  <text x="450" y="126" text-anchor="middle" font-size="16" font-weight="700" fill="#fff">Cortexpod</text>
  <text x="450" y="146" text-anchor="middle" font-size="10" fill="#dbeafe">control plane</text>
  <g stroke="#93c5fd" stroke-width="2" marker-end="url(#arCx)">
    <line x1="450" y1="72" x2="450" y2="45"/>
    <line x1="508" y1="105" x2="600" y2="60"/>
    <line x1="508" y1="130" x2="620" y2="130"/>
    <line x1="508" y1="155" x2="600" y2="200"/>
    <line x1="392" y1="155" x2="300" y2="200"/>
    <line x1="392" y1="130" x2="280" y2="130"/>
    <line x1="392" y1="105" x2="300" y2="60"/>
  </g>
  <g font-size="12" text-anchor="middle">
    <rect x="385" y="16" width="130" height="34" rx="8" fill="#dbeafe" stroke="#3b82f6"/><text x="450" y="37">Repos</text>
    <rect x="595" y="38" width="130" height="34" rx="8" fill="#dbeafe" stroke="#3b82f6"/><text x="660" y="59">Proposals</text>
    <rect x="615" y="113" width="130" height="34" rx="8" fill="#dbeafe" stroke="#3b82f6"/><text x="680" y="134">Reviews</text>
    <rect x="595" y="188" width="130" height="34" rx="8" fill="#dbeafe" stroke="#3b82f6"/><text x="660" y="209">Agent workspace</text>
    <rect x="235" y="188" width="130" height="34" rx="8" fill="#dbeafe" stroke="#3b82f6"/><text x="300" y="209">Knowledge graph</text>
    <rect x="155" y="113" width="130" height="34" rx="8" fill="#dbeafe" stroke="#3b82f6"/><text x="220" y="134">Audit</text>
    <rect x="175" y="38" width="130" height="34" rx="8" fill="#dbeafe" stroke="#3b82f6"/><text x="240" y="59">Permission</text>
  </g>
</svg>
