<?xml version="1.0" encoding="UTF-8"?>
<svg xmlns="http://www.w3.org/2000/svg" viewBox="0 0 900 340" width="900" height="340" font-family="ui-sans-serif, system-ui">
  <defs>
    <marker id="arMono" markerWidth="9" markerHeight="9" refX="7" refY="3" orient="auto"><path d="M0,0 L7,3 L0,6 Z" fill="#6366f1"/></marker>
  </defs>
  <rect x="330" y="20" width="240" height="46" rx="10" fill="#eef2ff" stroke="#6366f1" stroke-width="2"/>
  <text x="450" y="42" text-anchor="middle" font-size="15" font-weight="700" fill="#3730a3">company-knowledge</text>
  <text x="450" y="59" text-anchor="middle" font-size="11" fill="#6366f1">document monorepo · single source of truth</text>

  <g font-size="12.5" text-anchor="middle">
    <rect x="60"  y="140" width="150" height="40" rx="8" fill="#f0fdfa" stroke="#14b8a6"/><text x="135" y="158">/services</text><text x="135" y="173" font-size="10" fill="#0d9488">*.mdoc</text>
    <rect x="235" y="140" width="150" height="40" rx="8" fill="#f0fdfa" stroke="#14b8a6"/><text x="310" y="158">/runbooks</text><text x="310" y="173" font-size="10" fill="#0d9488">*.mdoc</text>
    <rect x="410" y="140" width="150" height="40" rx="8" fill="#f0fdfa" stroke="#14b8a6"/><text x="485" y="158">/sheets</text><text x="485" y="173" font-size="10" fill="#0d9488">*.msheet</text>
    <rect x="585" y="140" width="150" height="40" rx="8" fill="#f0fdfa" stroke="#14b8a6"/><text x="660" y="158">/slides</text><text x="660" y="173" font-size="10" fill="#0d9488">*.mslide</text>
    <rect x="760" y="140" width="120" height="40" rx="8" fill="#f0fdfa" stroke="#14b8a6"/><text x="820" y="158">/decisions</text><text x="820" y="173" font-size="10" fill="#0d9488">ADR</text>
  </g>

  <g stroke="#6366f1" stroke-width="1.4" fill="none" marker-end="url(#arMono)">
    <path d="M450,66 C450,90 135,100 135,138"/>
    <path d="M450,66 C450,95 310,105 310,138"/>
    <path d="M450,66 L485,138"/>
    <path d="M450,66 C450,95 660,105 660,138"/>
    <path d="M450,66 C450,90 820,100 820,138"/>
  </g>

  <g font-size="12" text-anchor="middle">
    <rect x="150" y="250" width="160" height="40" rx="20" fill="#fef3c7" stroke="#f59e0b"/><text x="230" y="275">🔐 Permission + Owner</text>
    <rect x="370" y="250" width="160" height="40" rx="20" fill="#e0e7ff" stroke="#6366f1"/><text x="450" y="275">🕸️ Knowledge Graph</text>
    <rect x="590" y="250" width="160" height="40" rx="20" fill="#dcfce7" stroke="#22c55e"/><text x="670" y="275">🗂️ Version + Audit</text>
  </g>
</svg>
