<?xml version="1.0" encoding="UTF-8"?>
<svg xmlns="http://www.w3.org/2000/svg" viewBox="0 0 900 190" width="900" height="190" font-family="ui-sans-serif, system-ui">
  <defs>
    <marker id="arAg" markerWidth="9" markerHeight="9" refX="7" refY="3" orient="auto"><path d="M0,0 L7,3 L0,6 Z" fill="#6366f1"/></marker>
  </defs>
  <g font-size="12" text-anchor="middle">
    <rect x="10"  y="70" width="118" height="48" rx="8" fill="#eef2ff" stroke="#6366f1"/><text x="69" y="90">Read context</text><text x="69" y="106" font-size="10" fill="#6366f1">(graph, perm)</text>
    <rect x="150" y="70" width="118" height="48" rx="8" fill="#eef2ff" stroke="#6366f1"/><text x="209" y="90">Generate</text><text x="209" y="106" font-size="10" fill="#6366f1">doc/sheet/slide</text>
    <rect x="290" y="70" width="118" height="48" rx="8" fill="#eef2ff" stroke="#6366f1"/><text x="349" y="90">Validate</text><text x="349" y="106" font-size="10" fill="#6366f1">schema/policy</text>
    <rect x="430" y="70" width="118" height="48" rx="8" fill="#fef3c7" stroke="#f59e0b"/><text x="489" y="90">Open</text><text x="489" y="106" font-size="10" fill="#b45309">proposal</text>
    <rect x="570" y="70" width="118" height="48" rx="8" fill="#fef3c7" stroke="#f59e0b"/><text x="629" y="90">Human</text><text x="629" y="106" font-size="10" fill="#b45309">review</text>
    <rect x="710" y="70" width="118" height="48" rx="8" fill="#dcfce7" stroke="#22c55e"/><text x="769" y="90">Lob commit</text><text x="769" y="106" font-size="10" fill="#15803d">+ audit</text>
  </g>
  <g stroke="#6366f1" stroke-width="1.6" marker-end="url(#arAg)">
    <line x1="128" y1="94" x2="148" y2="94"/>
    <line x1="268" y1="94" x2="288" y2="94"/>
    <line x1="408" y1="94" x2="428" y2="94"/>
    <line x1="548" y1="94" x2="568" y2="94"/>
    <line x1="688" y1="94" x2="708" y2="94"/>
  </g>
</svg>
