<?xml version="1.0" encoding="UTF-8"?>
<svg xmlns="http://www.w3.org/2000/svg" viewBox="0 0 900 250" width="900" height="250" font-family="ui-sans-serif, system-ui">
  <defs>
    <marker id="arDemo" markerWidth="9" markerHeight="9" refX="7" refY="3" orient="auto"><path d="M0,0 L7,3 L0,6 Z" fill="#6366f1"/></marker>
  </defs>
  <g font-size="11.5" text-anchor="middle">
    <rect x="20"  y="20" width="150" height="42" rx="8" fill="#f1f5f9" stroke="#94a3b8"/><text x="95" y="38">Source docs</text><text x="95" y="53" font-size="9.5" fill="#64748b">runbook·incident·task</text>
    <rect x="210" y="20" width="150" height="42" rx="8" fill="#e0e7ff" stroke="#6366f1"/><text x="285" y="38">Permission-aware</text><text x="285" y="53" font-size="9.5" fill="#6366f1">agent scan</text>
    <rect x="400" y="20" width="150" height="42" rx="8" fill="#e0e7ff" stroke="#6366f1"/><text x="475" y="38">Document graph</text><text x="475" y="53" font-size="9.5" fill="#6366f1">context</text>
    <rect x="590" y="20" width="150" height="42" rx="8" fill="#f0fdfa" stroke="#14b8a6"/><text x="665" y="38">MarkdownSheet</text><text x="665" y="53" font-size="9.5" fill="#0d9488">transfer matrix</text>

    <rect x="590" y="105" width="150" height="42" rx="8" fill="#f0fdfa" stroke="#14b8a6"/><text x="665" y="123">MarkdownDoc</text><text x="665" y="138" font-size="9.5" fill="#0d9488">handover report</text>
    <rect x="400" y="105" width="150" height="42" rx="8" fill="#f0fdfa" stroke="#14b8a6"/><text x="475" y="123">MarkdownSlide</text><text x="475" y="138" font-size="9.5" fill="#0d9488">presentation</text>
    <rect x="210" y="105" width="150" height="42" rx="8" fill="#fef3c7" stroke="#f59e0b"/><text x="285" y="123">Cortexpod</text><text x="285" y="138" font-size="9.5" fill="#b45309">proposal</text>

    <rect x="210" y="190" width="150" height="42" rx="8" fill="#fef3c7" stroke="#f59e0b"/><text x="285" y="208">Human review</text><text x="285" y="223" font-size="9.5" fill="#b45309">&amp; approval</text>
    <rect x="400" y="190" width="150" height="42" rx="8" fill="#dcfce7" stroke="#22c55e"/><text x="475" y="208">Lob commit</text>
    <rect x="590" y="190" width="150" height="42" rx="8" fill="#dcfce7" stroke="#22c55e"/><text x="665" y="208">Audit + graph</text><text x="665" y="223" font-size="9.5" fill="#15803d">update · track</text>
  </g>
  <g stroke="#6366f1" stroke-width="1.5" fill="none" marker-end="url(#arDemo)">
    <line x1="170" y1="41" x2="208" y2="41"/>
    <line x1="360" y1="41" x2="398" y2="41"/>
    <line x1="550" y1="41" x2="588" y2="41"/>
    <path d="M665,62 L665,103"/>
    <line x1="588" y1="126" x2="552" y2="126"/>
    <line x1="398" y1="126" x2="362" y2="126"/>
    <path d="M285,147 L285,188"/>
    <line x1="360" y1="211" x2="398" y2="211"/>
    <line x1="550" y1="211" x2="588" y2="211"/>
  </g>
</svg>
