<?xml version="1.0" encoding="UTF-8"?>
<svg xmlns="http://www.w3.org/2000/svg" viewBox="0 0 920 360" width="920" height="360" font-family="ui-sans-serif, system-ui">
  <defs>
    <marker id="arChaos" markerWidth="9" markerHeight="9" refX="7" refY="3" orient="auto"><path d="M0,0 L7,3 L0,6 Z" fill="#cbd5e1"/></marker>
  </defs>
  <!-- messy web of duplicated docs -->
  <g font-size="12" text-anchor="middle">
    <rect x="60" y="40" width="120" height="30" rx="6" fill="#f1f5f9" stroke="#94a3b8"/><text x="120" y="60">report_v1.docx</text>
    <rect x="330" y="30" width="130" height="30" rx="6" fill="#f1f5f9" stroke="#94a3b8"/><text x="395" y="50">report_final.pdf</text>
    <rect x="640" y="55" width="150" height="30" rx="6" fill="#f1f5f9" stroke="#94a3b8"/><text x="715" y="75">report_FINAL_v2.docx</text>
    <rect x="120" y="150" width="120" height="30" rx="6" fill="#f1f5f9" stroke="#94a3b8"/><text x="180" y="170">deck.pptx</text>
    <rect x="420" y="170" width="140" height="30" rx="6" fill="#f1f5f9" stroke="#94a3b8"/><text x="490" y="190">deck-copy.pptx</text>
    <rect x="700" y="185" width="140" height="30" rx="6" fill="#f1f5f9" stroke="#94a3b8"/><text x="770" y="205">slack thread</text>
    <rect x="70" y="270" width="140" height="30" rx="6" fill="#f1f5f9" stroke="#94a3b8"/><text x="140" y="290">tracker.xlsx</text>
    <rect x="360" y="290" width="150" height="30" rx="6" fill="#f1f5f9" stroke="#94a3b8"/><text x="435" y="310">email attachment</text>
    <rect x="620" y="290" width="150" height="30" rx="6" fill="#f1f5f9" stroke="#94a3b8"/><text x="695" y="310">jira comment</text>
  </g>
  <g stroke="#cbd5e1" stroke-width="1.3" fill="none" marker-end="url(#arChaos)">
    <path d="M180,55 C260,55 280,45 330,45"/>
    <path d="M460,45 C560,45 580,60 640,70"/>
    <path d="M180,70 C200,110 190,130 190,150"/>
    <path d="M240,165 C330,165 350,180 420,185"/>
    <path d="M560,185 C630,190 650,195 700,200"/>
    <path d="M140,180 C140,220 140,240 140,270"/>
    <path d="M210,285 C290,290 300,300 360,305"/>
    <path d="M510,305 C560,305 580,300 620,300"/>
    <path d="M770,215 C780,250 740,275 695,290"/>
  </g>
</svg>
