<?xml version="1.0" encoding="UTF-8"?>
<svg xmlns="http://www.w3.org/2000/svg" viewBox="0 0 900 330" width="900" height="330" font-family="ui-sans-serif, system-ui">
  <defs>
    <marker id="arEco" markerWidth="8" markerHeight="8" refX="6" refY="3" orient="auto"><path d="M0,0 L6,3 L0,6 Z" fill="#c7d2fe"/></marker>
  </defs>
  <circle cx="450" cy="165" r="66" fill="#4f46e5"/>
  <text x="450" y="160" text-anchor="middle" font-size="16" font-weight="700" fill="#fff">Markdown</text>
  <text x="450" y="180" text-anchor="middle" font-size="16" font-weight="700" fill="#fff">Office</text>

  <g stroke="#c7d2fe" stroke-width="2" marker-end="url(#arEco)">
    <line x1="450" y1="100" x2="450" y2="60"/>
    <line x1="512" y1="130" x2="600" y2="80"/>
    <line x1="516" y1="165" x2="620" y2="165"/>
    <line x1="512" y1="200" x2="600" y2="250"/>
    <line x1="388" y1="200" x2="300" y2="250"/>
    <line x1="384" y1="165" x2="280" y2="165"/>
    <line x1="388" y1="130" x2="300" y2="80"/>
  </g>

  <g font-size="12.5" text-anchor="middle">
    <rect x="375" y="16" width="150" height="42" rx="10" fill="#eef2ff" stroke="#6366f1"/><text x="450" y="33" font-weight="700">MarkdownDoc</text><text x="450" y="49" font-size="10" fill="#6366f1">Word · report/spec</text>
    <rect x="595" y="40" width="150" height="42" rx="10" fill="#eef2ff" stroke="#6366f1"/><text x="670" y="57" font-weight="700">MarkdownSheet</text><text x="670" y="73" font-size="10" fill="#6366f1">Excel · tables</text>
    <rect x="620" y="144" width="150" height="42" rx="10" fill="#eef2ff" stroke="#6366f1"/><text x="695" y="161" font-weight="700">MarkdownSlide</text><text x="695" y="177" font-size="10" fill="#6366f1">PowerPoint · deck</text>
    <rect x="595" y="248" width="150" height="42" rx="10" fill="#eef2ff" stroke="#6366f1"/><text x="670" y="265" font-weight="700">MarkdownJira</text><text x="670" y="281" font-size="10" fill="#6366f1">task · workflow</text>
    <rect x="230" y="248" width="150" height="42" rx="10" fill="#eef2ff" stroke="#6366f1"/><text x="305" y="265" font-weight="700">MarkdownReport</text><text x="305" y="281" font-size="10" fill="#6366f1">exec · dashboard</text>
    <rect x="130" y="144" width="150" height="42" rx="10" fill="#eef2ff" stroke="#6366f1"/><text x="205" y="161" font-weight="700">MarkdownWorkflow</text><text x="205" y="177" font-size="10" fill="#6366f1">automation</text>
    <rect x="155" y="40" width="150" height="42" rx="10" fill="#eef2ff" stroke="#6366f1"/><text x="230" y="57" font-weight="700">MarkdownAgent</text><text x="230" y="73" font-size="10" fill="#6366f1">AI actor</text>
  </g>
</svg>
