<?xml version="1.0" encoding="UTF-8"?>
<svg xmlns="http://www.w3.org/2000/svg" viewBox="0 0 920 300" width="920" height="300" font-family="ui-sans-serif, system-ui">
  <defs>
    <marker id="ar1" markerWidth="9" markerHeight="9" refX="7" refY="3" orient="auto"><path d="M0,0 L7,3 L0,6 Z" fill="#94a3b8"/></marker>
  </defs>
  <!-- scattered tools -->
  <g font-size="13" text-anchor="middle">
    <g>
      <rect x="20" y="20" width="130" height="34" rx="8" fill="#eef2ff" stroke="#6366f1"/><text x="85" y="42">Google Docs</text>
      <rect x="20" y="70" width="130" height="34" rx="8" fill="#eef2ff" stroke="#6366f1"/><text x="85" y="92">PowerPoint</text>
      <rect x="20" y="120" width="130" height="34" rx="8" fill="#eef2ff" stroke="#6366f1"/><text x="85" y="142">Excel / Sheets</text>
      <rect x="20" y="170" width="130" height="34" rx="8" fill="#eef2ff" stroke="#6366f1"/><text x="85" y="192">Slack / Teams</text>
      <rect x="20" y="220" width="130" height="34" rx="8" fill="#eef2ff" stroke="#6366f1"/><text x="85" y="242">Jira / Linear</text>
    </g>
    <g>
      <rect x="180" y="45" width="130" height="34" rx="8" fill="#f0fdfa" stroke="#14b8a6"/><text x="245" y="67">Confluence</text>
      <rect x="180" y="120" width="130" height="34" rx="8" fill="#f0fdfa" stroke="#14b8a6"/><text x="245" y="142">Email</text>
      <rect x="180" y="195" width="130" height="34" rx="8" fill="#f0fdfa" stroke="#14b8a6"/><text x="245" y="217">Code repo / README</text>
    </g>
    <g>
      <rect x="340" y="70" width="130" height="34" rx="8" fill="#fffbeb" stroke="#f59e0b"/><text x="405" y="92">File server</text>
      <rect x="340" y="170" width="130" height="34" rx="8" fill="#fffbeb" stroke="#f59e0b"/><text x="405" y="192">Local laptop</text>
    </g>
  </g>
  <!-- arrows to void -->
  <g stroke="#94a3b8" stroke-width="1.5" marker-end="url(#ar1)" fill="none">
    <path d="M472,90 C560,110 560,120 610,135"/>
    <path d="M472,187 C560,170 560,160 610,150"/>
    <path d="M312,62 C520,70 540,120 610,135"/>
    <path d="M312,212 C520,205 540,160 610,150"/>
  </g>
  <!-- void -->
  <circle cx="720" cy="145" r="95" fill="#fef2f2" stroke="#ef4444" stroke-dasharray="6 5"/>
  <text x="720" y="130" text-anchor="middle" font-size="20" fill="#b91c1c" font-weight="700">Fragmented</text>
  <text x="720" y="158" text-anchor="middle" font-size="20" fill="#b91c1c" font-weight="700">Knowledge</text>
  <text x="720" y="185" text-anchor="middle" font-size="12" fill="#ef4444">No source of truth</text>
</svg>
