<?xml version="1.0" encoding="UTF-8"?>
<svg xmlns="http://www.w3.org/2000/svg" viewBox="0 0 900 230" width="900" height="230" font-family="ui-sans-serif, system-ui">
  <defs>
    <marker id="arSub" markerWidth="9" markerHeight="9" refX="7" refY="3" orient="auto"><path d="M0,0 L7,3 L0,6 Z" fill="#6366f1"/></marker>
  </defs>
  <g font-size="11.5" text-anchor="middle">
    <rect x="20"  y="20" width="180" height="40" rx="8" fill="#e0e7ff" stroke="#6366f1"/><text x="110" y="37">Working memory</text><text x="110" y="52" font-size="9.5" fill="#6366f1">context state</text>
    <rect x="20"  y="75" width="180" height="40" rx="8" fill="#fff7ed" stroke="#fb923c"/><text x="110" y="92">Episodic</text><text x="110" y="107" font-size="9.5" fill="#c2410c">event log</text>
    <rect x="20"  y="130" width="180" height="40" rx="8" fill="#eff6ff" stroke="#3b82f6"/><text x="110" y="147">Semantic</text><text x="110" y="162" font-size="9.5" fill="#1d4ed8">knowledge graph</text>
    <rect x="20"  y="185" width="180" height="40" rx="8" fill="#f0fdf4" stroke="#22c55e"/><text x="110" y="202">Procedural</text><text x="110" y="217" font-size="9.5" fill="#15803d">workflow / skill</text>

    <rect x="520" y="20" width="360" height="40" rx="8" fill="#f8fafc" stroke="#94a3b8"/><text x="700" y="44">Cortexpod agent workspace (scoped session)</text>
    <rect x="520" y="75" width="360" height="40" rx="8" fill="#f8fafc" stroke="#94a3b8"/><text x="700" y="99">Lob transaction log (append-only, timestamped)</text>
    <rect x="520" y="130" width="360" height="40" rx="8" fill="#f8fafc" stroke="#94a3b8"/><text x="700" y="154">Document graph + metadata (world model)</text>
    <rect x="520" y="185" width="360" height="40" rx="8" fill="#f8fafc" stroke="#94a3b8"/><text x="700" y="209">MarkdownWorkflow templates + Skill layer</text>
  </g>
  <g stroke="#6366f1" stroke-width="1.6" marker-end="url(#arSub)">
    <line x1="200" y1="40"  x2="518" y2="40"/>
    <line x1="200" y1="95"  x2="518" y2="95"/>
    <line x1="200" y1="150" x2="518" y2="150"/>
    <line x1="200" y1="205" x2="518" y2="205"/>
  </g>
</svg>
